<svg width="24" height="23" viewBox="0 0 24 23" fill="none" xmlns="http://www.w3.org/2000/svg">
<path d="M20.4 4.8421H16.8V3.63158C16.8 2.66841 16.4207 1.74476 15.7456 1.06364C15.0704 0.382613 14.1547 0 13.2 0H10.8C9.84531 0 8.92959 0.382613 8.25439 1.06364C7.57929 1.74476 7.2 2.66841 7.2 3.63158V4.8421H3.6C2.6452 4.8421 1.72959 5.22472 1.05439 5.90574C0.379286 6.58687 0 7.51051 0 8.47368V19.3684C0 20.3315 0.379286 21.2552 1.05439 21.9364C1.72959 22.6174 2.6452 23 3.6 23H20.4C21.3547 23 22.2704 22.6174 22.9456 21.9364C23.6207 21.2552 24 20.3315 24 19.3684V8.47368C24 7.51051 23.6207 6.58687 22.9456 5.90574C22.2704 5.22472 21.3547 4.8421 20.4 4.8421ZM9.6 3.63158C9.6 3.31052 9.72653 3.00264 9.95153 2.77556C10.1765 2.54859 10.4817 2.42105 10.8 2.42105H13.2C13.5183 2.42105 13.8236 2.54859 14.0486 2.77556C14.2736 3.00264 14.4 3.31052 14.4 3.63158V4.8421H9.6V3.63158ZM21.6 19.3684C21.6 19.6895 21.4736 19.9975 21.2486 20.2244C21.0236 20.4514 20.7183 20.5789 20.4 20.5789H3.6C3.28173 20.5789 2.97653 20.4514 2.75143 20.2244C2.52643 19.9975 2.4 19.6895 2.4 19.3684V13.2553H6V14.5263C6 14.8474 6.12643 15.1554 6.35143 15.3823C6.57653 15.6093 6.88173 15.7368 7.2 15.7368C7.51827 15.7368 7.82347 15.6093 8.04857 15.3823C8.27357 15.1554 8.4 14.8474 8.4 14.5263V13.2553H15.6V14.5263C15.6 14.8474 15.7265 15.1554 15.9515 15.3823C16.1765 15.6093 16.4817 15.7368 16.8 15.7368C17.1183 15.7368 17.4236 15.6093 17.6486 15.3823C17.8736 15.1554 18 14.8474 18 14.5263V13.2553H21.6V19.3684ZM21.6 10.8947H2.4V8.47368C2.4 8.15263 2.52643 7.84475 2.75143 7.61767C2.97653 7.3907 3.28173 7.26316 3.6 7.26316H20.4C20.7183 7.26316 21.0235 7.3907 21.2486 7.61767C21.4736 7.84475 21.6 8.15263 21.6 8.47368V10.8947Z" fill="white"/>
</svg>
